<mxfile modified="2022-09-22T14:52:02.251Z" host="app.diagrams.net" agent="5.0 (Windows NT 10.0; Win64; x64) AppleWebKit/537.36 (KHTML, like Gecko) Chrome/105.0.0.0 Safari/537.36" etag="6O9lTkYaaaZCQ_xVmJIA" version="20.3.3" type="github">
  <diagram id="Ht1M8jgEwFfnCIfOTk4-" name="Page-1">
    <mxGraphModel dx="1203" dy="720" grid="1" gridSize="10" guides="1" tooltips="1" connect="1" arrows="1" fold="1" page="0" pageScale="1" pageWidth="1654" pageHeight="1169" math="0" shadow="0">
      <root>
        <mxCell id="0" />
        <mxCell id="1" parent="0" />
        <mxCell id="UEzPUAAOIrF-is8g5C7q-2" value="AWS Cloud" style="points=[[0,0],[0.25,0],[0.5,0],[0.75,0],[1,0],[1,0.25],[1,0.5],[1,0.75],[1,1],[0.75,1],[0.5,1],[0.25,1],[0,1],[0,0.75],[0,0.5],[0,0.25]];outlineConnect=0;gradientColor=none;html=1;whiteSpace=wrap;fontSize=12;fontStyle=0;shape=mxgraph.aws4.group;grIcon=mxgraph.aws4.group_aws_cloud_alt;strokeColor=#232F3E;fillColor=none;verticalAlign=top;align=left;spacingLeft=30;fontColor=#232F3E;dashed=0;container=1;pointerEvents=0;collapsible=0;recursiveResize=0;strokeWidth=2;" parent="1" vertex="1">
          <mxGeometry x="203" y="127.5" width="1897" height="702.5" as="geometry" />
        </mxCell>
        <mxCell id="dvmCrzCYMaWsLNcymDTV-44" style="edgeStyle=entityRelationEdgeStyle;rounded=0;orthogonalLoop=1;jettySize=auto;html=1;exitX=1;exitY=0.5;exitDx=0;exitDy=0;exitPerimeter=0;entryX=0;entryY=0.5;entryDx=0;entryDy=0;entryPerimeter=0;fontFamily=Tahoma;fontSize=12;fontColor=#000000;endArrow=classic;endFill=1;" edge="1" parent="UEzPUAAOIrF-is8g5C7q-2" source="6SgV_SN4hcE-GMupCQ7z-68" target="dvmCrzCYMaWsLNcymDTV-8">
          <mxGeometry relative="1" as="geometry" />
        </mxCell>
        <mxCell id="dvmCrzCYMaWsLNcymDTV-45" style="edgeStyle=entityRelationEdgeStyle;rounded=0;orthogonalLoop=1;jettySize=auto;html=1;exitX=1;exitY=0.5;exitDx=0;exitDy=0;exitPerimeter=0;entryX=0;entryY=0.5;entryDx=0;entryDy=0;entryPerimeter=0;fontFamily=Tahoma;fontSize=12;fontColor=#000000;endArrow=classic;endFill=1;" edge="1" parent="UEzPUAAOIrF-is8g5C7q-2" source="6SgV_SN4hcE-GMupCQ7z-68" target="6SgV_SN4hcE-GMupCQ7z-70">
          <mxGeometry relative="1" as="geometry" />
        </mxCell>
        <mxCell id="6SgV_SN4hcE-GMupCQ7z-68" value="&lt;font style=&quot;font-size: 12px;&quot;&gt;&lt;b&gt;Amazon Route 53&lt;/b&gt;&lt;br&gt;DNS Service&lt;/font&gt;" style="sketch=0;points=[[0,0,0],[0.25,0,0],[0.5,0,0],[0.75,0,0],[1,0,0],[0,1,0],[0.25,1,0],[0.5,1,0],[0.75,1,0],[1,1,0],[0,0.25,0],[0,0.5,0],[0,0.75,0],[1,0.25,0],[1,0.5,0],[1,0.75,0]];outlineConnect=0;fontColor=#232F3E;gradientColor=#945DF2;gradientDirection=north;fillColor=#5A30B5;strokeColor=#ffffff;dashed=0;verticalLabelPosition=bottom;verticalAlign=top;align=center;html=1;fontSize=12;fontStyle=0;aspect=fixed;shape=mxgraph.aws4.resourceIcon;resIcon=mxgraph.aws4.route_53;labelBorderColor=none;fillStyle=auto;strokeWidth=3;fontFamily=Tahoma;" parent="UEzPUAAOIrF-is8g5C7q-2" vertex="1">
          <mxGeometry x="160" y="286" width="78" height="78" as="geometry" />
        </mxCell>
        <mxCell id="dvmCrzCYMaWsLNcymDTV-40" style="edgeStyle=entityRelationEdgeStyle;rounded=0;orthogonalLoop=1;jettySize=auto;html=1;exitX=1;exitY=0.5;exitDx=0;exitDy=0;exitPerimeter=0;entryX=0;entryY=0.5;entryDx=0;entryDy=0;entryPerimeter=0;fontFamily=Tahoma;fontSize=12;fontColor=#000000;endArrow=classic;endFill=1;" edge="1" parent="UEzPUAAOIrF-is8g5C7q-2" source="6SgV_SN4hcE-GMupCQ7z-70" target="dvmCrzCYMaWsLNcymDTV-37">
          <mxGeometry relative="1" as="geometry" />
        </mxCell>
        <mxCell id="6SgV_SN4hcE-GMupCQ7z-70" value="&lt;b&gt;AWS WAF&lt;/b&gt;&lt;br&gt;&lt;div&gt;Web application firewall&lt;/div&gt;" style="sketch=0;points=[[0,0,0],[0.25,0,0],[0.5,0,0],[0.75,0,0],[1,0,0],[0,1,0],[0.25,1,0],[0.5,1,0],[0.75,1,0],[1,1,0],[0,0.25,0],[0,0.5,0],[0,0.75,0],[1,0.25,0],[1,0.5,0],[1,0.75,0]];outlineConnect=0;fontColor=#232F3E;gradientColor=#F54749;gradientDirection=north;fillColor=#C7131F;strokeColor=#ffffff;dashed=0;verticalLabelPosition=bottom;verticalAlign=top;align=center;html=1;fontSize=12;fontStyle=0;aspect=fixed;shape=mxgraph.aws4.resourceIcon;resIcon=mxgraph.aws4.waf;labelBorderColor=none;fillStyle=auto;strokeWidth=3;fontFamily=Tahoma;" parent="UEzPUAAOIrF-is8g5C7q-2" vertex="1">
          <mxGeometry x="400" y="186" width="78" height="78" as="geometry" />
        </mxCell>
        <mxCell id="dvmCrzCYMaWsLNcymDTV-6" value="" style="sketch=0;outlineConnect=0;fontColor=#232F3E;gradientColor=none;strokeColor=#ffffff;fillColor=#232F3E;dashed=0;verticalLabelPosition=middle;verticalAlign=bottom;align=center;html=1;whiteSpace=wrap;fontSize=10;fontStyle=1;spacing=3;shape=mxgraph.aws4.productIcon;prIcon=mxgraph.aws4.shield;labelBorderColor=none;fillStyle=auto;strokeWidth=3;fontFamily=Tahoma;shadow=0;" vertex="1" parent="UEzPUAAOIrF-is8g5C7q-2">
          <mxGeometry x="49" y="45" width="80" height="75" as="geometry" />
        </mxCell>
        <mxCell id="dvmCrzCYMaWsLNcymDTV-7" value="&lt;b&gt;AWS Shield&lt;/b&gt;&lt;br&gt;Managed DDoS protection" style="text;html=1;align=center;verticalAlign=middle;resizable=0;points=[];autosize=1;strokeColor=none;fillColor=none;fontSize=12;fontFamily=Tahoma;fontColor=#000000;" vertex="1" parent="UEzPUAAOIrF-is8g5C7q-2">
          <mxGeometry x="10" y="125" width="160" height="40" as="geometry" />
        </mxCell>
        <mxCell id="dvmCrzCYMaWsLNcymDTV-41" style="edgeStyle=entityRelationEdgeStyle;rounded=0;orthogonalLoop=1;jettySize=auto;html=1;exitX=1;exitY=0.5;exitDx=0;exitDy=0;exitPerimeter=0;entryX=0;entryY=0.5;entryDx=0;entryDy=0;entryPerimeter=0;fontFamily=Tahoma;fontSize=12;fontColor=#000000;endArrow=classic;endFill=1;" edge="1" parent="UEzPUAAOIrF-is8g5C7q-2" source="dvmCrzCYMaWsLNcymDTV-8" target="dvmCrzCYMaWsLNcymDTV-37">
          <mxGeometry relative="1" as="geometry" />
        </mxCell>
        <mxCell id="dvmCrzCYMaWsLNcymDTV-8" value="&lt;b&gt;AWS WAF&lt;/b&gt;&lt;br&gt;&lt;div&gt;Web application firewall&lt;/div&gt;" style="sketch=0;points=[[0,0,0],[0.25,0,0],[0.5,0,0],[0.75,0,0],[1,0,0],[0,1,0],[0.25,1,0],[0.5,1,0],[0.75,1,0],[1,1,0],[0,0.25,0],[0,0.5,0],[0,0.75,0],[1,0.25,0],[1,0.5,0],[1,0.75,0]];outlineConnect=0;fontColor=#232F3E;gradientColor=#F54749;gradientDirection=north;fillColor=#C7131F;strokeColor=#ffffff;dashed=0;verticalLabelPosition=bottom;verticalAlign=top;align=center;html=1;fontSize=12;fontStyle=0;aspect=fixed;shape=mxgraph.aws4.resourceIcon;resIcon=mxgraph.aws4.waf;labelBorderColor=none;fillStyle=auto;strokeWidth=3;fontFamily=Tahoma;" vertex="1" parent="UEzPUAAOIrF-is8g5C7q-2">
          <mxGeometry x="400" y="386" width="78" height="78" as="geometry" />
        </mxCell>
        <mxCell id="dvmCrzCYMaWsLNcymDTV-13" style="edgeStyle=orthogonalEdgeStyle;rounded=0;orthogonalLoop=1;jettySize=auto;html=1;exitX=0;exitY=0.5;exitDx=0;exitDy=0;exitPerimeter=0;entryX=0.5;entryY=0;entryDx=0;entryDy=0;entryPerimeter=0;fontFamily=Tahoma;fontSize=12;fontColor=#000000;" edge="1" parent="UEzPUAAOIrF-is8g5C7q-2" source="dvmCrzCYMaWsLNcymDTV-9" target="6SgV_SN4hcE-GMupCQ7z-68">
          <mxGeometry relative="1" as="geometry" />
        </mxCell>
        <mxCell id="dvmCrzCYMaWsLNcymDTV-9" value="&lt;b&gt;AWS Certificate manager&lt;/b&gt;&lt;br&gt;SSL/TLS certificates" style="sketch=0;points=[[0,0,0],[0.25,0,0],[0.5,0,0],[0.75,0,0],[1,0,0],[0,1,0],[0.25,1,0],[0.5,1,0],[0.75,1,0],[1,1,0],[0,0.25,0],[0,0.5,0],[0,0.75,0],[1,0.25,0],[1,0.5,0],[1,0.75,0]];outlineConnect=0;fontColor=#232F3E;gradientColor=#F54749;gradientDirection=north;fillColor=#C7131F;strokeColor=#ffffff;dashed=0;verticalLabelPosition=bottom;verticalAlign=top;align=center;html=1;fontSize=12;fontStyle=0;aspect=fixed;shape=mxgraph.aws4.resourceIcon;resIcon=mxgraph.aws4.certificate_manager_3;shadow=0;labelBorderColor=none;fillStyle=auto;strokeWidth=3;fontFamily=Tahoma;" vertex="1" parent="UEzPUAAOIrF-is8g5C7q-2">
          <mxGeometry x="270" y="47" width="78" height="78" as="geometry" />
        </mxCell>
        <mxCell id="dvmCrzCYMaWsLNcymDTV-35" value="www.netflix.com" style="text;html=1;align=center;verticalAlign=middle;resizable=0;points=[];autosize=1;strokeColor=none;fillColor=none;fontSize=12;fontFamily=Tahoma;fontColor=#000000;rotation=45;" vertex="1" parent="UEzPUAAOIrF-is8g5C7q-2">
          <mxGeometry x="259" y="375" width="110" height="30" as="geometry" />
        </mxCell>
        <mxCell id="dvmCrzCYMaWsLNcymDTV-36" value="admin.netflix.com" style="text;html=1;align=center;verticalAlign=middle;resizable=0;points=[];autosize=1;strokeColor=none;fillColor=none;fontSize=12;fontFamily=Tahoma;fontColor=#000000;rotation=315;flipV=1;flipH=1;" vertex="1" parent="UEzPUAAOIrF-is8g5C7q-2">
          <mxGeometry x="249" y="245" width="120" height="30" as="geometry" />
        </mxCell>
        <mxCell id="dvmCrzCYMaWsLNcymDTV-37" value="&lt;b&gt;AWS CloudFront&lt;/b&gt;&lt;br&gt;caches &amp;amp; serves content" style="sketch=0;points=[[0,0,0],[0.25,0,0],[0.5,0,0],[0.75,0,0],[1,0,0],[0,1,0],[0.25,1,0],[0.5,1,0],[0.75,1,0],[1,1,0],[0,0.25,0],[0,0.5,0],[0,0.75,0],[1,0.25,0],[1,0.5,0],[1,0.75,0]];outlineConnect=0;fontColor=#232F3E;gradientColor=#945DF2;gradientDirection=north;fillColor=#5A30B5;strokeColor=#ffffff;dashed=0;verticalLabelPosition=top;verticalAlign=bottom;align=center;html=1;fontSize=12;fontStyle=0;aspect=fixed;shape=mxgraph.aws4.resourceIcon;resIcon=mxgraph.aws4.cloudfront;shadow=0;labelBorderColor=none;fillStyle=auto;strokeWidth=3;fontFamily=Tahoma;labelPosition=center;" vertex="1" parent="UEzPUAAOIrF-is8g5C7q-2">
          <mxGeometry x="640" y="286" width="78" height="78" as="geometry" />
        </mxCell>
        <mxCell id="dvmCrzCYMaWsLNcymDTV-42" value="admin.netflix.com" style="text;html=1;align=center;verticalAlign=middle;resizable=0;points=[];autosize=1;strokeColor=none;fillColor=none;fontSize=12;fontFamily=Tahoma;fontColor=#000000;rotation=45;flipV=1;flipH=1;" vertex="1" parent="UEzPUAAOIrF-is8g5C7q-2">
          <mxGeometry x="510" y="245" width="120" height="30" as="geometry" />
        </mxCell>
        <mxCell id="dvmCrzCYMaWsLNcymDTV-43" value="www.netflix.com" style="text;html=1;align=center;verticalAlign=middle;resizable=0;points=[];autosize=1;strokeColor=none;fillColor=none;fontSize=12;fontFamily=Tahoma;fontColor=#000000;rotation=315;" vertex="1" parent="UEzPUAAOIrF-is8g5C7q-2">
          <mxGeometry x="510" y="375" width="110" height="30" as="geometry" />
        </mxCell>
        <mxCell id="dvmCrzCYMaWsLNcymDTV-63" style="edgeStyle=entityRelationEdgeStyle;rounded=0;orthogonalLoop=1;jettySize=auto;html=1;exitX=1;exitY=0.5;exitDx=0;exitDy=0;exitPerimeter=0;fontFamily=Tahoma;fontSize=12;fontColor=#000000;endArrow=classic;endFill=1;" edge="1" parent="UEzPUAAOIrF-is8g5C7q-2" source="dvmCrzCYMaWsLNcymDTV-48" target="dvmCrzCYMaWsLNcymDTV-62">
          <mxGeometry relative="1" as="geometry" />
        </mxCell>
        <mxCell id="dvmCrzCYMaWsLNcymDTV-48" value="&lt;b&gt;AWS Cognito&lt;/b&gt;&lt;br&gt;Identity Pool" style="sketch=0;points=[[0,0,0],[0.25,0,0],[0.5,0,0],[0.75,0,0],[1,0,0],[0,1,0],[0.25,1,0],[0.5,1,0],[0.75,1,0],[1,1,0],[0,0.25,0],[0,0.5,0],[0,0.75,0],[1,0.25,0],[1,0.5,0],[1,0.75,0]];outlineConnect=0;fontColor=#232F3E;gradientColor=#F54749;gradientDirection=north;fillColor=#C7131F;strokeColor=#ffffff;dashed=0;verticalLabelPosition=bottom;verticalAlign=top;align=center;html=1;fontSize=12;fontStyle=0;aspect=fixed;shape=mxgraph.aws4.resourceIcon;resIcon=mxgraph.aws4.cognito;shadow=0;labelBorderColor=none;fillStyle=auto;strokeWidth=3;fontFamily=Tahoma;" vertex="1" parent="UEzPUAAOIrF-is8g5C7q-2">
          <mxGeometry x="880" y="186" width="78" height="78" as="geometry" />
        </mxCell>
        <mxCell id="dvmCrzCYMaWsLNcymDTV-49" style="edgeStyle=entityRelationEdgeStyle;rounded=0;orthogonalLoop=1;jettySize=auto;html=1;exitX=1;exitY=0.5;exitDx=0;exitDy=0;exitPerimeter=0;entryX=0;entryY=0.5;entryDx=0;entryDy=0;entryPerimeter=0;fontFamily=Tahoma;fontSize=12;fontColor=#000000;endArrow=classic;endFill=1;" edge="1" parent="UEzPUAAOIrF-is8g5C7q-2">
          <mxGeometry relative="1" as="geometry">
            <mxPoint x="718.0000000000002" y="325" as="sourcePoint" />
            <mxPoint x="880" y="425" as="targetPoint" />
          </mxGeometry>
        </mxCell>
        <mxCell id="dvmCrzCYMaWsLNcymDTV-50" style="edgeStyle=entityRelationEdgeStyle;rounded=0;orthogonalLoop=1;jettySize=auto;html=1;exitX=1;exitY=0.5;exitDx=0;exitDy=0;exitPerimeter=0;entryX=0;entryY=0.5;entryDx=0;entryDy=0;entryPerimeter=0;fontFamily=Tahoma;fontSize=12;fontColor=#000000;endArrow=classic;endFill=1;" edge="1" parent="UEzPUAAOIrF-is8g5C7q-2">
          <mxGeometry relative="1" as="geometry">
            <mxPoint x="718.0000000000002" y="325" as="sourcePoint" />
            <mxPoint x="880" y="225.0000000000001" as="targetPoint" />
          </mxGeometry>
        </mxCell>
        <mxCell id="dvmCrzCYMaWsLNcymDTV-51" value="www.netflix.com" style="text;html=1;align=center;verticalAlign=middle;resizable=0;points=[];autosize=1;strokeColor=none;fillColor=none;fontSize=12;fontFamily=Tahoma;fontColor=#000000;rotation=45;" vertex="1" parent="UEzPUAAOIrF-is8g5C7q-2">
          <mxGeometry x="739" y="375" width="110" height="30" as="geometry" />
        </mxCell>
        <mxCell id="dvmCrzCYMaWsLNcymDTV-52" value="admin.netflix.com" style="text;html=1;align=center;verticalAlign=middle;resizable=0;points=[];autosize=1;strokeColor=none;fillColor=none;fontSize=12;fontFamily=Tahoma;fontColor=#000000;rotation=315;flipV=1;flipH=1;" vertex="1" parent="UEzPUAAOIrF-is8g5C7q-2">
          <mxGeometry x="729" y="245" width="120" height="30" as="geometry" />
        </mxCell>
        <mxCell id="dvmCrzCYMaWsLNcymDTV-109" style="edgeStyle=orthogonalEdgeStyle;rounded=0;orthogonalLoop=1;jettySize=auto;html=1;exitX=1;exitY=0.5;exitDx=0;exitDy=0;exitPerimeter=0;entryX=0;entryY=0.5;entryDx=0;entryDy=0;entryPerimeter=0;fontFamily=Tahoma;fontSize=12;fontColor=#000000;endArrow=classic;endFill=1;" edge="1" parent="UEzPUAAOIrF-is8g5C7q-2" source="dvmCrzCYMaWsLNcymDTV-53" target="dvmCrzCYMaWsLNcymDTV-71">
          <mxGeometry relative="1" as="geometry" />
        </mxCell>
        <mxCell id="dvmCrzCYMaWsLNcymDTV-125" style="edgeStyle=entityRelationEdgeStyle;rounded=0;orthogonalLoop=1;jettySize=auto;html=1;exitX=0;exitY=0.5;exitDx=0;exitDy=0;exitPerimeter=0;entryX=1;entryY=0.5;entryDx=0;entryDy=0;entryPerimeter=0;fontFamily=Tahoma;fontSize=14;fontColor=#000000;endArrow=classic;endFill=1;" edge="1" parent="UEzPUAAOIrF-is8g5C7q-2" source="dvmCrzCYMaWsLNcymDTV-53" target="dvmCrzCYMaWsLNcymDTV-37">
          <mxGeometry relative="1" as="geometry" />
        </mxCell>
        <mxCell id="dvmCrzCYMaWsLNcymDTV-53" value="&lt;b&gt;AWS Cognito&lt;/b&gt;&lt;br&gt;User Pool" style="sketch=0;points=[[0,0,0],[0.25,0,0],[0.5,0,0],[0.75,0,0],[1,0,0],[0,1,0],[0.25,1,0],[0.5,1,0],[0.75,1,0],[1,1,0],[0,0.25,0],[0,0.5,0],[0,0.75,0],[1,0.25,0],[1,0.5,0],[1,0.75,0]];outlineConnect=0;fontColor=#232F3E;gradientColor=#F54749;gradientDirection=north;fillColor=#C7131F;strokeColor=#ffffff;dashed=0;verticalLabelPosition=bottom;verticalAlign=top;align=center;html=1;fontSize=12;fontStyle=0;aspect=fixed;shape=mxgraph.aws4.resourceIcon;resIcon=mxgraph.aws4.cognito;shadow=0;labelBorderColor=none;fillStyle=auto;strokeWidth=3;fontFamily=Tahoma;" vertex="1" parent="UEzPUAAOIrF-is8g5C7q-2">
          <mxGeometry x="880" y="386" width="78" height="78" as="geometry" />
        </mxCell>
        <mxCell id="dvmCrzCYMaWsLNcymDTV-54" value="&lt;div style=&quot;&quot;&gt;&lt;b style=&quot;background-color: initial;&quot;&gt;&amp;nbsp; AWS IAM&amp;nbsp;&amp;nbsp;&lt;/b&gt;&lt;/div&gt;&amp;nbsp; Identity and Access Managment&amp;nbsp;&amp;nbsp;" style="sketch=0;points=[[0,0,0],[0.25,0,0],[0.5,0,0],[0.75,0,0],[1,0,0],[0,1,0],[0.25,1,0],[0.5,1,0],[0.75,1,0],[1,1,0],[0,0.25,0],[0,0.5,0],[0,0.75,0],[1,0.25,0],[1,0.5,0],[1,0.75,0]];outlineConnect=0;fontColor=#232F3E;gradientColor=#F54749;gradientDirection=north;fillColor=#C7131F;strokeColor=#ffffff;dashed=0;verticalLabelPosition=middle;verticalAlign=middle;align=right;html=1;fontSize=12;fontStyle=0;aspect=fixed;shape=mxgraph.aws4.resourceIcon;resIcon=mxgraph.aws4.identity_and_access_management;shadow=0;labelBorderColor=none;fillStyle=auto;strokeWidth=3;fontFamily=Tahoma;labelPosition=left;" vertex="1" parent="UEzPUAAOIrF-is8g5C7q-2">
          <mxGeometry x="880" y="47" width="78" height="78" as="geometry" />
        </mxCell>
        <mxCell id="dvmCrzCYMaWsLNcymDTV-55" value="" style="endArrow=classic;startArrow=classic;html=1;rounded=0;fontFamily=Tahoma;fontSize=12;fontColor=#000000;entryX=0.5;entryY=1;entryDx=0;entryDy=0;entryPerimeter=0;exitX=0.5;exitY=0;exitDx=0;exitDy=0;exitPerimeter=0;" edge="1" parent="UEzPUAAOIrF-is8g5C7q-2" source="dvmCrzCYMaWsLNcymDTV-48" target="dvmCrzCYMaWsLNcymDTV-54">
          <mxGeometry width="50" height="50" relative="1" as="geometry">
            <mxPoint x="990" y="255" as="sourcePoint" />
            <mxPoint x="1040" y="205" as="targetPoint" />
          </mxGeometry>
        </mxCell>
        <mxCell id="dvmCrzCYMaWsLNcymDTV-61" value="VPC" style="points=[[0,0],[0.25,0],[0.5,0],[0.75,0],[1,0],[1,0.25],[1,0.5],[1,0.75],[1,1],[0.75,1],[0.5,1],[0.25,1],[0,1],[0,0.75],[0,0.5],[0,0.25]];outlineConnect=0;gradientColor=none;html=1;whiteSpace=wrap;fontSize=12;fontStyle=0;container=1;pointerEvents=0;collapsible=0;recursiveResize=0;shape=mxgraph.aws4.group;grIcon=mxgraph.aws4.group_vpc;strokeColor=#248814;fillColor=none;verticalAlign=top;align=left;spacingLeft=30;fontColor=#AAB7B8;dashed=0;shadow=0;labelBorderColor=none;sketch=0;fillStyle=auto;strokeWidth=2;fontFamily=Tahoma;" vertex="1" parent="UEzPUAAOIrF-is8g5C7q-2">
          <mxGeometry x="997" y="30" width="853" height="610" as="geometry" />
        </mxCell>
        <mxCell id="dvmCrzCYMaWsLNcymDTV-93" style="edgeStyle=orthogonalEdgeStyle;rounded=0;orthogonalLoop=1;jettySize=auto;html=1;exitX=1;exitY=0.5;exitDx=0;exitDy=0;exitPerimeter=0;entryX=0;entryY=0.5;entryDx=0;entryDy=0;entryPerimeter=0;fontFamily=Tahoma;fontSize=12;fontColor=#000000;endArrow=classic;endFill=1;" edge="1" parent="dvmCrzCYMaWsLNcymDTV-61" source="dvmCrzCYMaWsLNcymDTV-62" target="dvmCrzCYMaWsLNcymDTV-67">
          <mxGeometry relative="1" as="geometry" />
        </mxCell>
        <mxCell id="dvmCrzCYMaWsLNcymDTV-62" value="&lt;b&gt;AWS AppSync&lt;/b&gt;&lt;br&gt;Serverless APIs&amp;nbsp;" style="sketch=0;points=[[0,0,0],[0.25,0,0],[0.5,0,0],[0.75,0,0],[1,0,0],[0,1,0],[0.25,1,0],[0.5,1,0],[0.75,1,0],[1,1,0],[0,0.25,0],[0,0.5,0],[0,0.75,0],[1,0.25,0],[1,0.5,0],[1,0.75,0]];outlineConnect=0;fontColor=#232F3E;gradientColor=#FF4F8B;gradientDirection=north;fillColor=#BC1356;strokeColor=#ffffff;dashed=0;verticalLabelPosition=bottom;verticalAlign=top;align=center;html=1;fontSize=12;fontStyle=0;aspect=fixed;shape=mxgraph.aws4.resourceIcon;resIcon=mxgraph.aws4.appsync;" vertex="1" parent="dvmCrzCYMaWsLNcymDTV-61">
          <mxGeometry x="50" y="156" width="78" height="78" as="geometry" />
        </mxCell>
        <mxCell id="dvmCrzCYMaWsLNcymDTV-94" style="edgeStyle=orthogonalEdgeStyle;rounded=0;orthogonalLoop=1;jettySize=auto;html=1;exitX=1;exitY=0.5;exitDx=0;exitDy=0;exitPerimeter=0;entryX=0.5;entryY=0;entryDx=0;entryDy=0;entryPerimeter=0;fontFamily=Tahoma;fontSize=12;fontColor=#000000;endArrow=classic;endFill=1;" edge="1" parent="dvmCrzCYMaWsLNcymDTV-61" source="dvmCrzCYMaWsLNcymDTV-67" target="dvmCrzCYMaWsLNcymDTV-70">
          <mxGeometry relative="1" as="geometry" />
        </mxCell>
        <mxCell id="dvmCrzCYMaWsLNcymDTV-67" value="&lt;b&gt;Amazon S3&lt;br&gt;&lt;/b&gt;&lt;span style=&quot;color: rgb(77, 81, 86); font-family: arial, sans-serif; font-size: 14px; text-align: left; background-color: rgb(255, 255, 255);&quot;&gt;Input bucket&lt;/span&gt;" style="sketch=0;points=[[0,0,0],[0.25,0,0],[0.5,0,0],[0.75,0,0],[1,0,0],[0,1,0],[0.25,1,0],[0.5,1,0],[0.75,1,0],[1,1,0],[0,0.25,0],[0,0.5,0],[0,0.75,0],[1,0.25,0],[1,0.5,0],[1,0.75,0]];outlineConnect=0;fontColor=#232F3E;gradientColor=#60A337;gradientDirection=north;fillColor=#277116;strokeColor=#ffffff;dashed=0;verticalLabelPosition=bottom;verticalAlign=top;align=center;html=1;fontSize=12;fontStyle=0;aspect=fixed;shape=mxgraph.aws4.resourceIcon;resIcon=mxgraph.aws4.s3;" vertex="1" parent="dvmCrzCYMaWsLNcymDTV-61">
          <mxGeometry x="212" y="22.5" width="78" height="78" as="geometry" />
        </mxCell>
        <mxCell id="dvmCrzCYMaWsLNcymDTV-83" style="edgeStyle=orthogonalEdgeStyle;rounded=0;orthogonalLoop=1;jettySize=auto;html=1;exitX=1;exitY=0.5;exitDx=0;exitDy=0;exitPerimeter=0;entryX=0;entryY=0.5;entryDx=0;entryDy=0;entryPerimeter=0;fontFamily=Tahoma;fontSize=12;fontColor=#000000;endArrow=classic;endFill=1;" edge="1" parent="dvmCrzCYMaWsLNcymDTV-61" source="dvmCrzCYMaWsLNcymDTV-70" target="dvmCrzCYMaWsLNcymDTV-76">
          <mxGeometry relative="1" as="geometry" />
        </mxCell>
        <mxCell id="dvmCrzCYMaWsLNcymDTV-84" style="edgeStyle=orthogonalEdgeStyle;rounded=0;orthogonalLoop=1;jettySize=auto;html=1;exitX=1;exitY=0.5;exitDx=0;exitDy=0;exitPerimeter=0;entryX=0;entryY=0.5;entryDx=0;entryDy=0;entryPerimeter=0;fontFamily=Tahoma;fontSize=12;fontColor=#000000;endArrow=classic;endFill=1;" edge="1" parent="dvmCrzCYMaWsLNcymDTV-61" source="dvmCrzCYMaWsLNcymDTV-70" target="dvmCrzCYMaWsLNcymDTV-80">
          <mxGeometry relative="1" as="geometry" />
        </mxCell>
        <mxCell id="dvmCrzCYMaWsLNcymDTV-85" style="edgeStyle=orthogonalEdgeStyle;rounded=0;orthogonalLoop=1;jettySize=auto;html=1;exitX=1;exitY=0.5;exitDx=0;exitDy=0;exitPerimeter=0;entryX=0;entryY=0.5;entryDx=0;entryDy=0;entryPerimeter=0;fontFamily=Tahoma;fontSize=12;fontColor=#000000;endArrow=classic;endFill=1;" edge="1" parent="dvmCrzCYMaWsLNcymDTV-61" source="dvmCrzCYMaWsLNcymDTV-70" target="dvmCrzCYMaWsLNcymDTV-81">
          <mxGeometry relative="1" as="geometry" />
        </mxCell>
        <mxCell id="dvmCrzCYMaWsLNcymDTV-70" value="&lt;b&gt;AWS Lambda&amp;nbsp;&amp;nbsp;&lt;br&gt;&lt;/b&gt;Trigger lambda&amp;nbsp;&amp;nbsp;" style="sketch=0;points=[[0,0,0],[0.25,0,0],[0.5,0,0],[0.75,0,0],[1,0,0],[0,1,0],[0.25,1,0],[0.5,1,0],[0.75,1,0],[1,1,0],[0,0.25,0],[0,0.5,0],[0,0.75,0],[1,0.25,0],[1,0.5,0],[1,0.75,0]];outlineConnect=0;fontColor=#232F3E;gradientColor=#F78E04;gradientDirection=north;fillColor=#D05C17;strokeColor=#ffffff;dashed=0;verticalLabelPosition=middle;verticalAlign=middle;align=right;html=1;fontSize=12;fontStyle=0;aspect=fixed;shape=mxgraph.aws4.resourceIcon;resIcon=mxgraph.aws4.lambda;shadow=0;labelBorderColor=none;fillStyle=auto;strokeWidth=2;fontFamily=Tahoma;labelPosition=left;" vertex="1" parent="dvmCrzCYMaWsLNcymDTV-61">
          <mxGeometry x="340" y="154.5" width="78" height="78" as="geometry" />
        </mxCell>
        <mxCell id="dvmCrzCYMaWsLNcymDTV-112" style="edgeStyle=orthogonalEdgeStyle;rounded=0;orthogonalLoop=1;jettySize=auto;html=1;exitX=0;exitY=0.5;exitDx=0;exitDy=0;exitPerimeter=0;entryX=1;entryY=0.5;entryDx=0;entryDy=0;entryPerimeter=0;fontFamily=Tahoma;fontSize=12;fontColor=#000000;endArrow=classic;endFill=1;" edge="1" parent="dvmCrzCYMaWsLNcymDTV-61" source="dvmCrzCYMaWsLNcymDTV-71" target="dvmCrzCYMaWsLNcymDTV-108">
          <mxGeometry relative="1" as="geometry">
            <Array as="points">
              <mxPoint x="340" y="413" />
              <mxPoint x="249" y="413" />
              <mxPoint x="249" y="522" />
            </Array>
          </mxGeometry>
        </mxCell>
        <mxCell id="dvmCrzCYMaWsLNcymDTV-71" value="&lt;b&gt;Amazon S3&amp;nbsp;&amp;nbsp;&lt;br&gt;&lt;/b&gt;&lt;span style=&quot;color: rgb(77, 81, 86); font-family: arial, sans-serif; font-size: 14px; text-align: left; background-color: rgb(255, 255, 255);&quot;&gt;Output bucket&amp;nbsp;&amp;nbsp;&lt;/span&gt;" style="sketch=0;points=[[0,0,0],[0.25,0,0],[0.5,0,0],[0.75,0,0],[1,0,0],[0,1,0],[0.25,1,0],[0.5,1,0],[0.75,1,0],[1,1,0],[0,0.25,0],[0,0.5,0],[0,0.75,0],[1,0.25,0],[1,0.5,0],[1,0.75,0]];outlineConnect=0;fontColor=#232F3E;gradientColor=#60A337;gradientDirection=north;fillColor=#277116;strokeColor=#ffffff;dashed=0;verticalLabelPosition=bottom;verticalAlign=top;align=center;html=1;fontSize=12;fontStyle=0;aspect=fixed;shape=mxgraph.aws4.resourceIcon;resIcon=mxgraph.aws4.s3;labelPosition=center;" vertex="1" parent="dvmCrzCYMaWsLNcymDTV-61">
          <mxGeometry x="340" y="356" width="78" height="78" as="geometry" />
        </mxCell>
        <mxCell id="dvmCrzCYMaWsLNcymDTV-76" value="&lt;b&gt;&amp;nbsp; AWS Secrets Manager&lt;/b&gt;&lt;br&gt;&amp;nbsp; Get secrets keys" style="sketch=0;points=[[0,0,0],[0.25,0,0],[0.5,0,0],[0.75,0,0],[1,0,0],[0,1,0],[0.25,1,0],[0.5,1,0],[0.75,1,0],[1,1,0],[0,0.25,0],[0,0.5,0],[0,0.75,0],[1,0.25,0],[1,0.5,0],[1,0.75,0]];outlineConnect=0;fontColor=#232F3E;gradientColor=#F54749;gradientDirection=north;fillColor=#C7131F;strokeColor=#ffffff;dashed=0;verticalLabelPosition=middle;verticalAlign=middle;align=left;html=1;fontSize=12;fontStyle=0;aspect=fixed;shape=mxgraph.aws4.resourceIcon;resIcon=mxgraph.aws4.secrets_manager;shadow=0;labelBorderColor=none;fillStyle=auto;strokeWidth=2;fontFamily=Tahoma;labelPosition=right;" vertex="1" parent="dvmCrzCYMaWsLNcymDTV-61">
          <mxGeometry x="538" y="46" width="78" height="78" as="geometry" />
        </mxCell>
        <mxCell id="dvmCrzCYMaWsLNcymDTV-80" value="&lt;b&gt;&amp;nbsp; AWS DynamoDB&lt;/b&gt;&lt;br&gt;&amp;nbsp; Store video metadata" style="sketch=0;points=[[0,0,0],[0.25,0,0],[0.5,0,0],[0.75,0,0],[1,0,0],[0,1,0],[0.25,1,0],[0.5,1,0],[0.75,1,0],[1,1,0],[0,0.25,0],[0,0.5,0],[0,0.75,0],[1,0.25,0],[1,0.5,0],[1,0.75,0]];outlineConnect=0;fontColor=#232F3E;gradientColor=#4D72F3;gradientDirection=north;fillColor=#3334B9;strokeColor=#ffffff;dashed=0;verticalLabelPosition=middle;verticalAlign=middle;align=left;html=1;fontSize=12;fontStyle=0;aspect=fixed;shape=mxgraph.aws4.resourceIcon;resIcon=mxgraph.aws4.dynamodb;labelPosition=right;" vertex="1" parent="dvmCrzCYMaWsLNcymDTV-61">
          <mxGeometry x="538" y="154.5" width="78" height="78" as="geometry" />
        </mxCell>
        <mxCell id="dvmCrzCYMaWsLNcymDTV-86" style="edgeStyle=orthogonalEdgeStyle;rounded=0;orthogonalLoop=1;jettySize=auto;html=1;exitX=0.5;exitY=1;exitDx=0;exitDy=0;exitPerimeter=0;entryX=1;entryY=0.5;entryDx=0;entryDy=0;entryPerimeter=0;fontFamily=Tahoma;fontSize=12;fontColor=#000000;endArrow=classic;endFill=1;" edge="1" parent="dvmCrzCYMaWsLNcymDTV-61" source="dvmCrzCYMaWsLNcymDTV-81" target="dvmCrzCYMaWsLNcymDTV-71">
          <mxGeometry relative="1" as="geometry" />
        </mxCell>
        <mxCell id="dvmCrzCYMaWsLNcymDTV-81" value="&lt;b&gt;&amp;nbsp; AWS Elemental MediaConvert&lt;/b&gt;&lt;br&gt;&amp;nbsp; Convert content to desired extension" style="sketch=0;points=[[0,0,0],[0.25,0,0],[0.5,0,0],[0.75,0,0],[1,0,0],[0,1,0],[0.25,1,0],[0.5,1,0],[0.75,1,0],[1,1,0],[0,0.25,0],[0,0.5,0],[0,0.75,0],[1,0.25,0],[1,0.5,0],[1,0.75,0]];outlineConnect=0;fontColor=#232F3E;gradientColor=#F78E04;gradientDirection=north;fillColor=#D05C17;strokeColor=#ffffff;dashed=0;verticalLabelPosition=middle;verticalAlign=middle;align=left;html=1;fontSize=12;fontStyle=0;aspect=fixed;shape=mxgraph.aws4.resourceIcon;resIcon=mxgraph.aws4.elemental_mediaconvert;shadow=0;labelBorderColor=none;fillStyle=auto;strokeWidth=2;fontFamily=Tahoma;labelPosition=right;" vertex="1" parent="dvmCrzCYMaWsLNcymDTV-61">
          <mxGeometry x="538" y="266" width="78" height="78" as="geometry" />
        </mxCell>
        <mxCell id="dvmCrzCYMaWsLNcymDTV-108" value="&lt;b&gt;AWS Elemental MediaPackage&lt;/b&gt;&lt;br&gt;Preparate and protect videos" style="sketch=0;points=[[0,0,0],[0.25,0,0],[0.5,0,0],[0.75,0,0],[1,0,0],[0,1,0],[0.25,1,0],[0.5,1,0],[0.75,1,0],[1,1,0],[0,0.25,0],[0,0.5,0],[0,0.75,0],[1,0.25,0],[1,0.5,0],[1,0.75,0]];outlineConnect=0;fontColor=#232F3E;gradientColor=#F78E04;gradientDirection=north;fillColor=#D05C17;strokeColor=#ffffff;dashed=0;verticalLabelPosition=bottom;verticalAlign=top;align=center;html=1;fontSize=12;fontStyle=0;aspect=fixed;shape=mxgraph.aws4.resourceIcon;resIcon=mxgraph.aws4.elemental_mediapackage;shadow=0;labelBorderColor=none;fillStyle=auto;strokeWidth=2;fontFamily=Tahoma;" vertex="1" parent="dvmCrzCYMaWsLNcymDTV-61">
          <mxGeometry x="94" y="482.5" width="78" height="78" as="geometry" />
        </mxCell>
        <mxCell id="dvmCrzCYMaWsLNcymDTV-111" value="" style="endArrow=classic;startArrow=classic;html=1;rounded=0;fontFamily=Tahoma;fontSize=12;fontColor=#000000;entryX=0.5;entryY=1;entryDx=0;entryDy=0;entryPerimeter=0;exitX=0.5;exitY=0;exitDx=0;exitDy=0;exitPerimeter=0;" edge="1" parent="dvmCrzCYMaWsLNcymDTV-61" source="dvmCrzCYMaWsLNcymDTV-71" target="dvmCrzCYMaWsLNcymDTV-70">
          <mxGeometry width="50" height="50" relative="1" as="geometry">
            <mxPoint x="310" y="392.5" as="sourcePoint" />
            <mxPoint x="360" y="342.5" as="targetPoint" />
          </mxGeometry>
        </mxCell>
        <mxCell id="dvmCrzCYMaWsLNcymDTV-110" style="edgeStyle=orthogonalEdgeStyle;rounded=0;orthogonalLoop=1;jettySize=auto;html=1;exitX=0;exitY=0.5;exitDx=0;exitDy=0;exitPerimeter=0;entryX=0.5;entryY=1;entryDx=0;entryDy=0;entryPerimeter=0;fontFamily=Tahoma;fontSize=12;fontColor=#000000;endArrow=classic;endFill=1;" edge="1" parent="UEzPUAAOIrF-is8g5C7q-2" source="dvmCrzCYMaWsLNcymDTV-108" target="dvmCrzCYMaWsLNcymDTV-37">
          <mxGeometry relative="1" as="geometry" />
        </mxCell>
        <mxCell id="-QjtrjUzRDEMRZ5MF8oH-47" value="&lt;font color=&quot;#ff0000&quot;&gt;NETFLIX&lt;/font&gt;" style="text;html=1;resizable=0;points=[];autosize=1;align=left;verticalAlign=top;spacingTop=-4;fontSize=30;fontStyle=1;fontFamily=Tahoma;" parent="1" vertex="1">
          <mxGeometry x="50" y="28" width="150" height="50" as="geometry" />
        </mxCell>
        <mxCell id="-QjtrjUzRDEMRZ5MF8oH-48" value="&lt;span style=&quot;font-size: 17px;&quot;&gt;Architectural Proposal&amp;nbsp;&lt;/span&gt;" style="text;html=1;resizable=0;points=[];autosize=1;align=left;verticalAlign=top;spacingTop=-4;fontSize=17;" parent="1" vertex="1">
          <mxGeometry x="50" y="67" width="190" height="30" as="geometry" />
        </mxCell>
        <mxCell id="SCVMTBWpLvtzJIhz15lM-1" value="" style="line;strokeWidth=2;html=1;fontSize=14;" parent="1" vertex="1">
          <mxGeometry x="40" y="93" width="2080" height="10" as="geometry" />
        </mxCell>
        <mxCell id="6SgV_SN4hcE-GMupCQ7z-53" value="Actors" style="swimlane;fontSize=14;align=center;swimlaneFillColor=#f4f4f4;fillColor=#f4f4f4;startSize=33;container=1;pointerEvents=0;collapsible=0;recursiveResize=0;strokeWidth=2;fontFamily=Tahoma;" parent="1" vertex="1">
          <mxGeometry x="51" y="127.5" width="122" height="305" as="geometry" />
        </mxCell>
        <mxCell id="6SgV_SN4hcE-GMupCQ7z-54" value="Admin" style="outlineConnect=0;fontColor=#232F3E;gradientColor=none;fillColor=#333333;strokeColor=none;dashed=0;verticalLabelPosition=bottom;verticalAlign=top;align=center;html=1;fontSize=12;fontStyle=0;aspect=fixed;pointerEvents=1;shape=mxgraph.aws4.user;labelBackgroundColor=none;strokeWidth=0;" parent="6SgV_SN4hcE-GMupCQ7z-53" vertex="1">
          <mxGeometry x="22" y="62.5" width="78" height="78" as="geometry" />
        </mxCell>
        <mxCell id="dvmCrzCYMaWsLNcymDTV-57" value="Users&lt;br&gt;" style="outlineConnect=0;fontColor=#232F3E;gradientColor=none;fillColor=#232F3E;strokeColor=none;dashed=0;verticalLabelPosition=bottom;verticalAlign=top;align=center;html=1;fontSize=12;fontStyle=0;aspect=fixed;pointerEvents=1;shape=mxgraph.aws4.users;labelBackgroundColor=none;" vertex="1" parent="6SgV_SN4hcE-GMupCQ7z-53">
          <mxGeometry x="22.000000000000014" y="186.4999999999999" width="78" height="78" as="geometry" />
        </mxCell>
        <mxCell id="dvmCrzCYMaWsLNcymDTV-159" value="CloudFront Details" style="swimlane;fontSize=14;align=center;swimlaneFillColor=#f4f4f4;fillColor=#f4f4f4;startSize=33;container=1;pointerEvents=0;collapsible=0;recursiveResize=0;strokeWidth=2;fontFamily=Tahoma;" vertex="1" parent="1">
          <mxGeometry x="50" y="892" width="800" height="439.5" as="geometry" />
        </mxCell>
        <mxCell id="dvmCrzCYMaWsLNcymDTV-145" value="&lt;font color=&quot;#5a30b5&quot;&gt;CloudFront&lt;/font&gt;" style="points=[[0,0],[0.25,0],[0.5,0],[0.75,0],[1,0],[1,0.25],[1,0.5],[1,0.75],[1,1],[0.75,1],[0.5,1],[0.25,1],[0,1],[0,0.75],[0,0.5],[0,0.25]];outlineConnect=0;gradientColor=none;html=1;whiteSpace=wrap;fontSize=12;fontStyle=0;container=1;pointerEvents=0;collapsible=0;recursiveResize=0;shape=mxgraph.aws4.group;grIcon=mxgraph.aws4.group_region;strokeColor=#5A30B5;fillColor=none;verticalAlign=top;align=left;spacingLeft=30;fontColor=#147EBA;dashed=1;rounded=1;shadow=0;glass=0;labelBorderColor=none;sketch=0;fillStyle=auto;strokeWidth=2;fontFamily=Tahoma;" vertex="1" parent="dvmCrzCYMaWsLNcymDTV-159">
          <mxGeometry x="95" y="57" width="610" height="359" as="geometry" />
        </mxCell>
        <mxCell id="dvmCrzCYMaWsLNcymDTV-140" value="&lt;b&gt;AWS Elemental MediaPackage&lt;/b&gt;" style="sketch=0;points=[[0,0,0],[0.25,0,0],[0.5,0,0],[0.75,0,0],[1,0,0],[0,1,0],[0.25,1,0],[0.5,1,0],[0.75,1,0],[1,1,0],[0,0.25,0],[0,0.5,0],[0,0.75,0],[1,0.25,0],[1,0.5,0],[1,0.75,0]];outlineConnect=0;fontColor=#232F3E;gradientColor=#F78E04;gradientDirection=north;fillColor=#D05C17;strokeColor=#ffffff;dashed=0;verticalLabelPosition=bottom;verticalAlign=top;align=center;html=1;fontSize=12;fontStyle=0;aspect=fixed;shape=mxgraph.aws4.resourceIcon;resIcon=mxgraph.aws4.elemental_mediapackage;shadow=0;labelBorderColor=none;fillStyle=auto;strokeWidth=2;fontFamily=Tahoma;labelPosition=center;" vertex="1" parent="dvmCrzCYMaWsLNcymDTV-145">
          <mxGeometry x="450" y="91.5" width="78" height="78" as="geometry" />
        </mxCell>
        <mxCell id="dvmCrzCYMaWsLNcymDTV-146" value="" style="sketch=0;points=[[0,0,0],[0.25,0,0],[0.5,0,0],[0.75,0,0],[1,0,0],[0,1,0],[0.25,1,0],[0.5,1,0],[0.75,1,0],[1,1,0],[0,0.25,0],[0,0.5,0],[0,0.75,0],[1,0.25,0],[1,0.5,0],[1,0.75,0]];outlineConnect=0;fontColor=#232F3E;gradientColor=#945DF2;gradientDirection=north;fillColor=#5A30B5;strokeColor=#ffffff;dashed=0;verticalLabelPosition=top;verticalAlign=bottom;align=center;html=1;fontSize=12;fontStyle=0;aspect=fixed;shape=mxgraph.aws4.resourceIcon;resIcon=mxgraph.aws4.cloudfront;shadow=0;labelBorderColor=none;fillStyle=auto;strokeWidth=3;fontFamily=Tahoma;labelPosition=center;" vertex="1" parent="dvmCrzCYMaWsLNcymDTV-145">
          <mxGeometry width="30" height="30" as="geometry" />
        </mxCell>
        <mxCell id="dvmCrzCYMaWsLNcymDTV-134" value="&lt;b style=&quot;color: rgb(35, 47, 62); font-family: Tahoma; font-size: 12px; font-style: normal; font-variant-ligatures: normal; font-variant-caps: normal; letter-spacing: normal; orphans: 2; text-align: center; text-indent: 0px; text-transform: none; widows: 2; word-spacing: 0px; -webkit-text-stroke-width: 0px; background-color: rgb(248, 249, 250); text-decoration-thickness: initial; text-decoration-style: initial; text-decoration-color: initial;&quot;&gt;Edges locations&lt;/b&gt;&lt;br&gt;" style="sketch=0;outlineConnect=0;fontColor=#232F3E;gradientColor=none;fillColor=#4D27AA;strokeColor=none;dashed=0;verticalLabelPosition=bottom;verticalAlign=top;align=center;html=1;fontSize=12;fontStyle=0;aspect=fixed;pointerEvents=1;shape=mxgraph.aws4.edge_location;rounded=1;shadow=0;glass=0;labelBorderColor=none;fillStyle=auto;strokeWidth=2;fontFamily=Tahoma;" vertex="1" parent="dvmCrzCYMaWsLNcymDTV-145">
          <mxGeometry x="40" y="49" width="58" height="58" as="geometry" />
        </mxCell>
        <mxCell id="dvmCrzCYMaWsLNcymDTV-135" value="&lt;b&gt;Edges locations&lt;/b&gt;" style="sketch=0;outlineConnect=0;fontColor=#232F3E;gradientColor=none;fillColor=#4D27AA;strokeColor=none;dashed=0;verticalLabelPosition=bottom;verticalAlign=top;align=center;html=1;fontSize=12;fontStyle=0;aspect=fixed;pointerEvents=1;shape=mxgraph.aws4.edge_location;rounded=1;shadow=0;glass=0;labelBorderColor=none;fillStyle=auto;strokeWidth=2;fontFamily=Tahoma;" vertex="1" parent="dvmCrzCYMaWsLNcymDTV-145">
          <mxGeometry x="40" y="149" width="58" height="58" as="geometry" />
        </mxCell>
        <mxCell id="dvmCrzCYMaWsLNcymDTV-136" value="&lt;b&gt;Edges locations&lt;/b&gt;" style="sketch=0;outlineConnect=0;fontColor=#232F3E;gradientColor=none;fillColor=#4D27AA;strokeColor=none;dashed=0;verticalLabelPosition=bottom;verticalAlign=top;align=center;html=1;fontSize=12;fontStyle=0;aspect=fixed;pointerEvents=1;shape=mxgraph.aws4.edge_location;rounded=1;shadow=0;glass=0;labelBorderColor=none;fillStyle=auto;strokeWidth=2;fontFamily=Tahoma;" vertex="1" parent="dvmCrzCYMaWsLNcymDTV-145">
          <mxGeometry x="40" y="249" width="58" height="58" as="geometry" />
        </mxCell>
        <mxCell id="dvmCrzCYMaWsLNcymDTV-137" value="&lt;b&gt;Origin Shield&amp;nbsp;&amp;nbsp;&lt;/b&gt;" style="sketch=0;outlineConnect=0;fontColor=#232F3E;gradientColor=none;fillColor=#4D27AA;strokeColor=none;dashed=0;verticalLabelPosition=bottom;verticalAlign=top;align=left;html=1;fontSize=12;fontStyle=0;aspect=fixed;pointerEvents=1;shape=mxgraph.aws4.edge_location;rounded=1;shadow=0;glass=0;labelBorderColor=none;fillStyle=auto;strokeWidth=2;fontFamily=Tahoma;labelPosition=center;" vertex="1" parent="dvmCrzCYMaWsLNcymDTV-145">
          <mxGeometry x="276" y="91.5" width="78" height="78" as="geometry" />
        </mxCell>
        <mxCell id="dvmCrzCYMaWsLNcymDTV-147" value="" style="endArrow=classic;startArrow=classic;html=1;rounded=0;fontFamily=Tahoma;fontSize=14;fontColor=#5A30B5;entryX=0;entryY=0.5;entryDx=0;entryDy=0;entryPerimeter=0;" edge="1" parent="dvmCrzCYMaWsLNcymDTV-145" source="dvmCrzCYMaWsLNcymDTV-137" target="dvmCrzCYMaWsLNcymDTV-140">
          <mxGeometry width="50" height="50" relative="1" as="geometry">
            <mxPoint x="80" y="79" as="sourcePoint" />
            <mxPoint x="130" y="29" as="targetPoint" />
          </mxGeometry>
        </mxCell>
        <mxCell id="dvmCrzCYMaWsLNcymDTV-153" value="" style="endArrow=classic;startArrow=classic;html=1;rounded=0;fontFamily=Tahoma;fontSize=14;fontColor=#5A30B5;edgeStyle=orthogonalEdgeStyle;" edge="1" parent="dvmCrzCYMaWsLNcymDTV-145">
          <mxGeometry width="50" height="50" relative="1" as="geometry">
            <mxPoint x="97.99999999999955" y="179.06732283464567" as="sourcePoint" />
            <mxPoint x="196" y="195.6500000000001" as="targetPoint" />
          </mxGeometry>
        </mxCell>
        <mxCell id="dvmCrzCYMaWsLNcymDTV-154" value="" style="endArrow=classic;startArrow=classic;html=1;rounded=0;fontFamily=Tahoma;fontSize=14;fontColor=#5A30B5;edgeStyle=orthogonalEdgeStyle;" edge="1" parent="dvmCrzCYMaWsLNcymDTV-145">
          <mxGeometry width="50" height="50" relative="1" as="geometry">
            <mxPoint x="97.99999999999909" y="280.23" as="sourcePoint" />
            <mxPoint x="195.9999999999991" y="263.6473228346458" as="targetPoint" />
          </mxGeometry>
        </mxCell>
        <mxCell id="dvmCrzCYMaWsLNcymDTV-156" value="" style="endArrow=classic;html=1;rounded=0;fontFamily=Tahoma;fontSize=14;fontColor=#5A30B5;edgeStyle=orthogonalEdgeStyle;" edge="1" parent="dvmCrzCYMaWsLNcymDTV-145" source="dvmCrzCYMaWsLNcymDTV-139">
          <mxGeometry width="50" height="50" relative="1" as="geometry">
            <mxPoint x="230" y="173.98871428571397" as="sourcePoint" />
            <mxPoint x="276" y="138.00658655462166" as="targetPoint" />
            <Array as="points">
              <mxPoint x="220" y="138" />
            </Array>
          </mxGeometry>
        </mxCell>
        <mxCell id="dvmCrzCYMaWsLNcymDTV-158" value="" style="endArrow=classic;html=1;rounded=0;fontFamily=Tahoma;fontSize=14;fontColor=#5A30B5;edgeStyle=orthogonalEdgeStyle;" edge="1" parent="dvmCrzCYMaWsLNcymDTV-145" source="dvmCrzCYMaWsLNcymDTV-134" target="dvmCrzCYMaWsLNcymDTV-137">
          <mxGeometry width="50" height="50" relative="1" as="geometry">
            <mxPoint x="98" y="60.18902439024396" as="sourcePoint" />
            <mxPoint x="276" y="98.17682926829275" as="targetPoint" />
            <Array as="points">
              <mxPoint x="187" y="78" />
              <mxPoint x="187" y="119" />
            </Array>
          </mxGeometry>
        </mxCell>
        <mxCell id="dvmCrzCYMaWsLNcymDTV-139" value="&lt;b&gt;&amp;nbsp; Regional Caches&lt;/b&gt;" style="sketch=0;outlineConnect=0;fontColor=#232F3E;gradientColor=none;fillColor=#4D27AA;strokeColor=none;dashed=0;verticalLabelPosition=middle;verticalAlign=middle;align=left;html=1;fontSize=12;fontStyle=0;aspect=fixed;pointerEvents=1;shape=mxgraph.aws4.edge_location;rounded=1;shadow=0;glass=0;labelBorderColor=none;fillStyle=auto;strokeWidth=2;fontFamily=Tahoma;labelPosition=right;" vertex="1" parent="dvmCrzCYMaWsLNcymDTV-145">
          <mxGeometry x="165" y="196" width="68" height="68" as="geometry" />
        </mxCell>
        <mxCell id="dvmCrzCYMaWsLNcymDTV-3" value="" style="edgeStyle=orthogonalEdgeStyle;rounded=0;orthogonalLoop=1;jettySize=auto;html=1;fontFamily=Tahoma;fontSize=12;fontColor=#000000;" edge="1" parent="1" source="6SgV_SN4hcE-GMupCQ7z-56" target="6SgV_SN4hcE-GMupCQ7z-68">
          <mxGeometry relative="1" as="geometry" />
        </mxCell>
        <mxCell id="6SgV_SN4hcE-GMupCQ7z-56" value="Channels" style="swimlane;fontSize=14;align=center;swimlaneFillColor=#f4f4f4;fillColor=#f4f4f4;startSize=33;container=1;pointerEvents=0;collapsible=0;recursiveResize=0;strokeWidth=2;fontFamily=Tahoma;" parent="1" vertex="1">
          <mxGeometry x="51" y="445.5" width="122" height="384.5" as="geometry" />
        </mxCell>
        <mxCell id="6SgV_SN4hcE-GMupCQ7z-59" value="&lt;font color=&quot;#000000&quot;&gt;Mobile&lt;/font&gt;" style="outlineConnect=0;fontColor=#3333FF;gradientColor=none;strokeColor=none;fillColor=#333333;dashed=0;verticalLabelPosition=bottom;verticalAlign=top;align=center;html=1;fontSize=12;fontStyle=0;shape=mxgraph.aws4.mobile_client;labelBackgroundColor=none;labelBorderColor=none;" parent="6SgV_SN4hcE-GMupCQ7z-56" vertex="1">
          <mxGeometry x="34.5" y="89.75" width="53" height="78" as="geometry" />
        </mxCell>
        <mxCell id="6SgV_SN4hcE-GMupCQ7z-62" value="&lt;font style=&quot;font-size: 12px;&quot;&gt;Web&lt;/font&gt;" style="sketch=0;aspect=fixed;pointerEvents=1;shadow=0;dashed=0;html=1;strokeColor=#333333;labelPosition=center;verticalLabelPosition=bottom;verticalAlign=top;align=center;fillColor=none;shape=mxgraph.azure.computer;labelBorderColor=none;fillStyle=auto;strokeWidth=3;fontFamily=Tahoma;fontSize=17;fontColor=#000000;gradientColor=none;" parent="6SgV_SN4hcE-GMupCQ7z-56" vertex="1">
          <mxGeometry x="17.66" y="216.75" width="86.67" height="78" as="geometry" />
        </mxCell>
      </root>
    </mxGraphModel>
  </diagram>
</mxfile>
